<svg xmlns="http://www.w3.org/2000/svg" version="1.1" xmlns:xlink="http://www.w3.org/1999/xlink" xmlns:svgjs="http://svgjs.dev/svgjs" viewBox="0 0 800 800" opacity="1"><defs><symbol id="bbburst-shape-1" viewBox="0 0 194 167"><path d="m97 0 96.129 166.5H.871L97 0Z"></path></symbol><symbol id="bbburst-shape-4" viewBox="0 0 149 143"><path d="M71.647 2.781c.898-2.764 4.808-2.764 5.706 0l15.445 47.534a3 3 0 0 0 2.853 2.073h49.98c2.906 0 4.115 3.719 1.764 5.427L106.96 87.193a2.999 2.999 0 0 0-1.09 3.354l15.445 47.534c.898 2.764-2.266 5.062-4.617 3.354l-40.435-29.378a3 3 0 0 0-3.526 0l-40.435 29.378c-2.351 1.708-5.515-.59-4.617-3.354L43.13 90.547a3 3 0 0 0-1.09-3.354L1.605 57.815c-2.35-1.708-1.142-5.427 1.764-5.427h49.98a3 3 0 0 0 2.853-2.073L71.647 2.781Z"></path></symbol><symbol id="bbburst-shape-6" viewBox="0 0 133 116"><path d="M59.7487 10.2513c-13.6683-13.66839-35.8291-13.66839-49.4974 0-13.66839 13.6683-13.66839 35.8291 0 49.4974l49.4974-49.4974ZM66.5 66.5 41.7513 91.2487 66.5 115.997l24.7487-24.7483L66.5 66.5Zm56.249-6.7513c13.668-13.6683 13.668-35.8291 0-49.4974-13.669-13.66839-35.8294-13.66839-49.4977 0l49.4977 49.4974Zm-112.4977 0 31.5 31.5 49.4974-49.4974-31.5-31.5-49.4974 49.4974Zm80.9974 31.5 31.5003-31.5-49.4977-49.4974-31.5 31.5 49.4974 49.4974Z"></path></symbol><symbol id="bbburst-shape-7" viewBox="0 0 139 124"><path fill-rule="evenodd" clip-rule="evenodd" d="M70.1641 15.0917C54.6093.764854 37.8293-2.10782 24.4032 2.82615 10.3804 7.97941.763366 21.4591 1.00047 37.0608c.1068 7.0273 2.86132 13.7317 7.0039 20.2001C12.1442 63.7249 17.853 70.2322 24.25 76.9024c3.8209 3.9842 7.8871 8.0312 12.0767 12.201h.0001c10.0335 9.9862 20.7748 20.6766 30.5497 32.8956 1.38 1.725 3.8972 2.005 5.6223.624.6706-.536 1.1228-1.244 1.3439-2.011 9.5768-11.748 20.0328-22.0735 29.8163-31.7351 4.19-4.1373 8.256-8.1528 12.078-12.1062 6.396-6.6176 12.106-13.0752 16.247-19.4911 4.144-6.4196 6.905-13.0811 7.012-20.0691.237-15.5124-9.399-28.8902-23.411-33.99923-13.32-4.85681-29.9542-2.08621-45.4209 11.88043Zm-3.7351 7.4919C52.1278 8.44857 37.6826 6.46918 27.1626 10.3352 16.2859 14.3323 8.8148 24.7824 8.99955 36.9392c.07575 4.9844 2.03755 10.2234 5.74165 16.0072 3.707 5.7881 8.9752 11.8418 15.2827 18.4187 3.5798 3.7328 7.4978 7.6329 11.6 11.7163 9.0476 9.0063 18.9911 18.9046 28.1786 29.8666 9.2999-11.068 19.4036-21.0473 28.5839-30.1144l.0007-.0006c4.1019-4.0508 8.0189-7.9196 11.5979-11.6222 6.307-6.5252 11.573-12.5298 15.278-18.2697 3.703-5.7362 5.658-10.924 5.734-15.8531.184-12.0276-7.267-22.3914-18.153-26.3608-10.71-3.90518-25.4722-1.80041-40.0023 12.867-1.5547 1.5694-4.0874 1.5813-5.6568.0265-.3146-.3116-.5666-.6625-.7559-1.0371Z"></path></symbol><symbol id="bbburst-shape-8" viewBox="0 0 87 168"><path d="m12 12 31.2546 18.0749c16.4102 9.4902 20.014 31.6325 7.4603 45.8369L36.3296 92.1884c-12.5684 14.2206-8.9394 36.3916 7.5068 45.8636L75 156" stroke-width="14" stroke-linecap="round" stroke-linejoin="round"></path></symbol><symbol id="bbburst-shape-11" viewBox="0 0 194 167"><path d="M10.398 161 97 11l86.603 150H10.397Z" stroke-width="11"></path></symbol><symbol id="bbburst-shape-12" viewBox="0 0 170 151"><path d="M69.3728 54.2122 85 10.0031l15.627 44.2091c1.413 3.9958 5.19 6.6672 9.428 6.6673h49.312l-39.149 26.1447c-3.803 2.5401-5.399 7.3367-3.875 11.6488l15.179 42.94-40.9683-27.36c-3.3621-2.245-7.7453-2.245-11.1074 0l-40.9682 27.36 15.1785-42.94c1.5243-4.3121-.0712-9.1087-3.8746-11.6488L10.6333 60.8795h49.3112c4.2381-.0001 8.0159-2.6715 9.4283-6.6673Z" stroke-width="12"></path></symbol></defs><use xlink:href="#bbburst-shape-8" width="28.778532835557495" opacity="0.4445953196638911" transform="matrix(0.9846010322905899,-0.17481649582434933,0.17481649582434933,0.9846010322905899,99.32075763399233,133.40282787923923)" fill="none" stroke="#5cc7ef"></use><use xlink:href="#bbburst-shape-7" width="21.97224499950418" opacity="0.47985020566423364" transform="matrix(0.9914907880850777,-0.13017686869191247,0.13017686869191247,0.9914907880850777,280.2040413514167,-222.2458849264029)" fill="#72f555"></use><use xlink:href="#bbburst-shape-6" width="39.761015621033124" opacity="0.1452074644743192" transform="matrix(0.7920512842758984,-0.6104545544730582,0.6104545544730582,0.7920512842758984,412.27602115200955,367.0985034986718)" fill="#e433d0"></use><use xlink:href="#bbburst-shape-7" width="8.693168763302872" opacity="0.811525417988235" transform="matrix(0.9623880591513424,0.2716785298894859,-0.2716785298894859,0.9623880591513424,500.46428315235244,-70.86675263270973)" fill="#e433d0"></use><use xlink:href="#bbburst-shape-8" width="13.926948924547359" opacity="0.8059744994504389" transform="matrix(0.9512278817634278,0.3084890872557119,-0.3084890872557119,0.9512278817634278,429.72494056635975,10.567994326112853)" fill="none" stroke="#72f555"></use><use xlink:href="#bbburst-shape-1" width="7.797429284624835" opacity="0.9543476461553642" transform="matrix(0.9128289707154961,0.4083420994980655,-0.4083420994980655,0.9128289707154961,579.355383655111,27.07250591668634)" fill="#3505f3"></use><use xlink:href="#bbburst-shape-6" width="31.023253558083574" opacity="0.2620501397568855" transform="matrix(0.9997966686400207,0.020164854978814886,-0.020164854978814886,0.9997966686400207,327.838447868563,325.4786937091962)" fill="#e433d0"></use><use xlink:href="#bbburst-shape-6" width="28.514851845954684" opacity="0.13812216033581637" transform="matrix(0.870048100129352,0.49296683809492214,-0.49296683809492214,0.870048100129352,950.2361107146178,174.82563777898946)" fill="#3505f3"></use><use xlink:href="#bbburst-shape-11" width="18.848752917894" opacity="0.5700710573016732" transform="matrix(0.9831472901829242,0.18281522312425985,-0.18281522312425985,0.9831472901829242,360.15777742565706,168.07787458631407)" fill="none" stroke="#5cc7ef"></use><use xlink:href="#bbburst-shape-6" width="37.74967589266727" opacity="0.1669681585721996" transform="matrix(0.9852348127653179,0.17120853867517538,-0.17120853867517538,0.9852348127653179,89.57859432707775,-100.77057948374454)" fill="#3505f3"></use><use xlink:href="#bbburst-shape-1" width="23.38259294572677" opacity="0.3911317423737519" transform="matrix(0.7667294649341769,-0.6419703479147232,0.6419703479147232,0.7667294649341769,125.28255226303287,374.68014143665437)" fill="#d8f550"></use><use xlink:href="#bbburst-shape-8" width="10.926376820725324" opacity="0.704922296212793" transform="matrix(0.992686623412863,-0.12071978999803101,0.12071978999803101,0.992686623412863,397.66431610873127,-118.85862711413199)" fill="none" stroke="#72f555"></use><use xlink:href="#bbburst-shape-7" width="8.16915995045309" opacity="0.879054108307912" transform="matrix(0.9841181147165237,0.1775148903241506,-0.1775148903241506,0.9841181147165237,519.0944504182494,21.238169777864073)" fill="#5cc7ef"></use><use xlink:href="#bbburst-shape-8" width="42.36060883583676" opacity="0.24571620617276846" transform="matrix(0.947352305607701,0.32019308090552645,-0.32019308090552645,0.947352305607701,319.6716894733563,296.65839405320725)" fill="none" stroke="#72f555"></use><use xlink:href="#bbburst-shape-6" width="39.68668911955271" opacity="0.25588393555157474" transform="matrix(0.9047704095633804,-0.4258996430833359,0.4258996430833359,0.9047704095633804,495.3292089604585,224.512381479101)" fill="#72f555"></use><use xlink:href="#bbburst-shape-4" width="19.393737037877663" opacity="0.6419271049901925" transform="matrix(0.8528381555496708,-0.5221753349581302,0.5221753349581302,0.8528381555496708,325.4962171849269,-11.032144369658283)" fill="#3505f3"></use><use xlink:href="#bbburst-shape-7" width="8.062908142940596" opacity="0.9617069597521453" transform="matrix(0.911133671451356,0.4121109471338663,-0.4121109471338663,0.911133671451356,546.9086636283116,43.57837155993769)" fill="#d8f550"></use><use xlink:href="#bbburst-shape-7" width="21.442406933568584" opacity="0.5065326407154616" transform="matrix(0.8865158314263621,0.46269826088977895,-0.46269826088977895,0.8865158314263621,382.9529192366948,-70.20984617687162)" fill="#3505f3"></use><use xlink:href="#bbburst-shape-12" width="6.557108048786381" opacity="0.9182962663424413" transform="matrix(0.9995148469319309,0.0311459590097759,-0.0311459590097759,0.9995148469319309,374.1934322208598,11.376275555705604)" fill="none" stroke="#e433d0"></use><use xlink:href="#bbburst-shape-1" width="8.359942102625267" opacity="0.775659297532074" transform="matrix(0.8273284443958788,0.561718474944073,-0.561718474944073,0.8273284443958788,637.3538437630101,-32.92670189280335)" fill="#e433d0"></use><use xlink:href="#bbburst-shape-4" width="19.64603220977342" opacity="0.4997567864658694" transform="matrix(0.864757322458312,0.5021899772543563,-0.5021899772543563,0.864757322458312,808.201812707398,113.14791828208706)" fill="#5cc7ef"></use><use xlink:href="#bbburst-shape-8" width="25.078815544714274" opacity="0.5123378049161613" transform="matrix(0.9826740551447631,0.18534211972821255,-0.18534211972821255,0.9826740551447631,477.3244017369385,223.50551716988457)" fill="none" stroke="#d8f550"></use><use xlink:href="#bbburst-shape-12" width="17.069644547848437" opacity="0.6219064813419484" transform="matrix(0.8549598757898847,0.5186941399219244,-0.5186941399219244,0.8549598757898847,586.5616265770774,223.15746816184088)" fill="none" stroke="#e433d0"></use><use xlink:href="#bbburst-shape-11" width="30.804323982943668" opacity="0.5025725430369734" transform="matrix(0.9977124557498672,-0.06760070740435534,0.06760070740435534,0.9977124557498672,295.5005008179173,216.6259217741703)" fill="none" stroke="#3505f3"></use><use xlink:href="#bbburst-shape-1" width="37.79658985479719" opacity="0.15457954104009264" transform="matrix(0.7618625209004699,0.6477387584876954,-0.6477387584876954,0.7618625209004699,762.0704141003478,-278.8194847812471)" fill="#72f555"></use><use xlink:href="#bbburst-shape-6" width="28.24879268995053" opacity="0.15340251965045681" transform="matrix(0.9010537809119072,0.4337073712820163,-0.4337073712820163,0.9010537809119072,930.1344310678395,-59.80385861520443)" fill="#d8f550"></use><use xlink:href="#bbburst-shape-6" width="8.684013908258951" opacity="0.8252833898538607" transform="matrix(0.9899895596908085,-0.1411406096883503,0.1411406096883503,0.9899895596908085,359.9888330243025,80.45375830760577)" fill="#e433d0"></use><use xlink:href="#bbburst-shape-1" width="10.341238815582408" opacity="0.8424379468130987" transform="matrix(0.8062533850581283,-0.5915703500703103,0.5915703500703103,0.8062533850581283,113.22206413701437,134.53344379682903)" fill="#5cc7ef"></use><use xlink:href="#bbburst-shape-4" width="29.689570128401822" opacity="0.48633561518849255" transform="matrix(0.8824415986654993,-0.4704219647770264,0.4704219647770264,0.8824415986654993,-32.375304481124175,57.72151574730708)" fill="#e433d0"></use><use xlink:href="#bbburst-shape-6" width="32.67201211639094" opacity="0.23870463335725411" transform="matrix(0.9669123579482963,0.2551087847308783,-0.2551087847308783,0.9669123579482963,683.4851108232331,-271.04015071248136)" fill="#72f555"></use><use xlink:href="#bbburst-shape-1" width="8.510742639399755" opacity="0.9473428136986248" transform="matrix(0.999978345583194,-0.006580909108790466,0.006580909108790466,0.999978345583194,413.06483947963227,12.829998052873009)" fill="#e433d0"></use><use xlink:href="#bbburst-shape-4" width="19.33734902834087" opacity="0.5450400577548583" transform="matrix(0.7949310582505121,0.6066997714098143,-0.6066997714098143,0.7949310582505121,782.3479270151344,-65.94713558119088)" fill="#3505f3"></use><use xlink:href="#bbburst-shape-11" width="21.68782284885363" opacity="0.5869390449700771" transform="matrix(0.7894618562906138,-0.61379962321769,0.61379962321769,0.7894618562906138,286.754528018349,211.76009493974567)" fill="none" stroke="#5cc7ef"></use><use xlink:href="#bbburst-shape-4" width="20.09610032529821" opacity="0.5290278811565641" transform="matrix(0.8448625540424193,-0.5349834247683943,0.5349834247683943,0.8448625540424193,-25.10335537487606,129.561678120227)" fill="#72f555"></use><use xlink:href="#bbburst-shape-11" width="6.905414126974202" opacity="0.8962455676699267" transform="matrix(0.9775726136821031,0.2105986347979056,-0.2105986347979056,0.9775726136821031,501.42018092777886,-33.77323446429108)" fill="none" stroke="#3505f3"></use><use xlink:href="#bbburst-shape-7" width="6.133249916796865" opacity="0.9304843298608676" transform="matrix(0.9924426594743309,0.12270928104881626,-0.12270928104881626,0.9924426594743309,450.8492464794873,-28.264914921008142)" fill="#5cc7ef"></use><use xlink:href="#bbburst-shape-6" width="7.333870301381557" opacity="0.9250836711211858" transform="matrix(0.8955484987332611,-0.4449639158590303,0.4449639158590303,0.8955484987332611,233.35948891627555,73.78529688352808)" fill="#72f555"></use><use xlink:href="#bbburst-shape-4" width="20.743421195951598" opacity="0.6212069795024198" transform="matrix(0.9788352454225181,0.20464985296510443,-0.20464985296510443,0.9788352454225181,565.032787255996,148.9985430733591)" fill="#3505f3"></use><use xlink:href="#bbburst-shape-12" width="31.229788305814427" opacity="0.054775885310433314" transform="matrix(0.7169690888448049,0.6971049602757466,-0.6971049602757466,0.7169690888448049,453.5852520459298,-265.2514876764082)" fill="none" stroke="#3505f3"></use><use xlink:href="#bbburst-shape-6" width="14.230608937689775" opacity="0.650989488676545" transform="matrix(0.957542108743696,-0.2882934442242412,0.2882934442242412,0.957542108743696,192.7379345008261,-112.94572858855292)" fill="#72f555"></use><use xlink:href="#bbburst-shape-12" width="10.678753465767105" opacity="0.8069478672155653" transform="matrix(0.9132078253237509,0.40749413218777225,-0.40749413218777225,0.9132078253237509,634.4658934574132,73.99346210406338)" fill="none" stroke="#5cc7ef"></use><use xlink:href="#bbburst-shape-1" width="23.881678980377973" opacity="0.462746361215538" transform="matrix(0.9230348211149301,0.3847164137508679,-0.3847164137508679,0.9230348211149301,674.9882822596679,-176.23958222456525)" fill="#3505f3"></use><use xlink:href="#bbburst-shape-7" width="25.640852912766768" opacity="0.3812185105802125" transform="matrix(0.9620030838483229,0.2730385809117764,-0.2730385809117764,0.9620030838483229,280.9150582463468,-164.20629166479915)" fill="#72f555"></use><use xlink:href="#bbburst-shape-4" width="22.551279155073907" opacity="0.18346665465728706" transform="matrix(0.9992181174963767,0.03953673819369908,-0.03953673819369908,0.9992181174963767,407.593005013232,367.31477578805413)" fill="#72f555"></use><use xlink:href="#bbburst-shape-1" width="13.51561034760483" opacity="0.7086190580531844" transform="matrix(0.9626964036176409,-0.2705838769432879,0.2705838769432879,0.9626964036176409,362.1308630871204,-89.4619297679713)" fill="#d8f550"></use><use xlink:href="#bbburst-shape-12" width="15.197210537592053" opacity="0.6395345142444533" transform="matrix(0.7571398663912,-0.6532528015409623,0.6532528015409623,0.7571398663912,176.02163178517645,-54.29334847399602)" fill="none" stroke="#5cc7ef"></use><use xlink:href="#bbburst-shape-11" width="14.0240194967869" opacity="0.6988209460707927" transform="matrix(0.8738339642921323,-0.48622443670541315,0.48622443670541315,0.8738339642921323,291.7964799022711,152.77352437206304)" fill="none" stroke="#3505f3"></use><use xlink:href="#bbburst-shape-6" width="8.177866180594192" opacity="0.9531255425751839" transform="matrix(0.9667541313664872,0.25570774232672105,-0.25570774232672105,0.9667541313664872,478.33607681464446,5.531568135297448)" fill="#72f555"></use><use xlink:href="#bbburst-shape-11" width="28.021763750453708" opacity="0.09294233404955965" transform="matrix(0.8525287076906511,-0.5226804019315324,0.5226804019315324,0.8525287076906511,537.3265513876893,-129.0917780534014)" fill="none" stroke="#72f555"></use><use xlink:href="#bbburst-shape-4" width="9.395588047259592" opacity="0.7199061895967582" transform="matrix(0.9894032024647301,-0.1451940183083869,0.1451940183083869,0.9894032024647301,355.82715495625337,-119.74023072696048)" fill="#72f555"></use><use xlink:href="#bbburst-shape-4" width="12.871145085259396" opacity="0.7701915150740121" transform="matrix(0.9361447499001507,0.3516148563903184,-0.3516148563903184,0.9361447499001507,556.5634883882118,124.3484810826302)" fill="#5cc7ef"></use><use xlink:href="#bbburst-shape-1" width="28.571460010764554" opacity="0.03937053596879769" transform="matrix(0.9941917071015569,0.10762364763606562,-0.10762364763606562,0.9941917071015569,669.434191623657,359.96665928151714)" fill="#5cc7ef"></use><use xlink:href="#bbburst-shape-8" width="30.661142316370707" opacity="0.05738892867596668" transform="matrix(0.9770159419616803,-0.2131662476864728,0.2131662476864728,0.9770159419616803,-62.656688301230396,232.87477397720858)" fill="none" stroke="#72f555"></use><use xlink:href="#bbburst-shape-4" width="13.319436512012171" opacity="0.7469285894022044" transform="matrix(0.8314621204760785,0.5555814451666139,-0.5555814451666139,0.8314621204760785,509.0260995488861,26.60457895733532)" fill="#d8f550"></use><use xlink:href="#bbburst-shape-11" width="29.703936032483544" opacity="0.3267137356011697" transform="matrix(0.9793430358881139,-0.20220588037308007,0.20220588037308007,0.9793430358881139,78.66873705478146,212.87777169085132)" fill="none" stroke="#72f555"></use><use xlink:href="#bbburst-shape-11" width="7.674421280523951" opacity="0.9085495691692604" transform="matrix(0.7509866493434842,-0.6603173877067351,0.6603173877067351,0.7509866493434842,96.83728196776502,82.28743483051164)" fill="none" stroke="#e433d0"></use><use xlink:href="#bbburst-shape-7" width="22.05826628879284" opacity="0.5707976226679565" transform="matrix(0.9905627193666949,0.13706020210425213,-0.13706020210425213,0.9905627193666949,255.66439360545434,-41.347175909857924)" fill="#3505f3"></use><use xlink:href="#bbburst-shape-4" width="8.418952401136675" opacity="0.8549559827216285" transform="matrix(0.7513184661531492,0.6599398172691803,-0.6599398172691803,0.7513184661531492,649.2288953480278,32.46587799663422)" fill="#5cc7ef"></use><use xlink:href="#bbburst-shape-12" width="25.450571961049885" opacity="0.44726140566313166" transform="matrix(0.7412972009366002,0.6711769214473645,-0.6711769214473645,0.7412972009366002,505.1431631788393,290.2896752335328)" fill="none" stroke="#d8f550"></use><use xlink:href="#bbburst-shape-4" width="9.509609191141447" opacity="0.9005458871488122" transform="matrix(0.7673357254254413,-0.6412455726832053,0.6412455726832053,0.7673357254254413,129.8544888064576,52.499487195502866)" fill="#72f555"></use><use xlink:href="#bbburst-shape-11" width="5.672891441693188" opacity="0.8879454273559146" transform="matrix(0.9942517440923833,-0.10706759252572194,0.10706759252572194,0.9942517440923833,385.5431231135381,42.144862047433264)" fill="none" stroke="#72f555"></use><use xlink:href="#bbburst-shape-12" width="12.226122232983702" opacity="0.8103656351348684" transform="matrix(0.9568641729287602,0.29053563389945736,-0.29053563389945736,0.9568641729287602,478.4940842598295,94.61503329606211)" fill="none" stroke="#72f555"></use><use xlink:href="#bbburst-shape-8" width="8.017485145850111" opacity="0.9186103867359274" transform="matrix(0.8818816239356474,-0.4714708913227044,0.4714708913227044,0.8818816239356474,183.94093749747628,76.85932922228278)" fill="none" stroke="#d8f550"></use><use xlink:href="#bbburst-shape-6" width="30.06922487157878" opacity="0.3418474458986722" transform="matrix(0.9998914402938719,0.014734572509797208,-0.014734572509797208,0.9998914402938719,590.5785922437053,218.51994146093244)" fill="#72f555"></use><use xlink:href="#bbburst-shape-1" width="17.226076976583418" opacity="0.5416989187509785" transform="matrix(0.9412723180427908,0.3376483722548525,-0.3376483722548525,0.9412723180427908,601.6352186620259,212.83903404878936)" fill="#3505f3"></use><use xlink:href="#bbburst-shape-8" width="20.723384816963442" opacity="0.2862027490958966" transform="matrix(0.9307445731491535,0.3656699872198975,-0.3656699872198975,0.9307445731491535,533.2307612831172,-297.27762938890004)" fill="none" stroke="#72f555"></use><use xlink:href="#bbburst-shape-11" width="25.393158140107573" opacity="0.6295225251166414" transform="matrix(0.9612747190951284,-0.27559193462179193,0.27559193462179193,0.9612747190951284,111.41472494791783,33.510646612866594)" fill="none" stroke="#e433d0"></use><use xlink:href="#bbburst-shape-11" width="14.128889928577017" opacity="0.6651231316151592" transform="matrix(0.8767071282010965,0.4810245434085313,-0.4810245434085313,0.8767071282010965,586.9965789534017,-104.9336551673693)" fill="none" stroke="#72f555"></use><use xlink:href="#bbburst-shape-7" width="30.357768834828697" opacity="0.18056461637217314" transform="matrix(0.7758418439177285,0.6309274389550189,-0.6309274389550189,0.7758418439177285,1008.9701651591067,94.68725664864724)" fill="#d8f550"></use><use xlink:href="#bbburst-shape-11" width="16.204048103014983" opacity="0.6221866595059746" transform="matrix(0.9766363157951243,0.21489882891753082,-0.21489882891753082,0.9766363157951243,514.3371854278088,173.5079287625078)" fill="none" stroke="#3505f3"></use><use xlink:href="#bbburst-shape-4" width="11.784319478368518" opacity="0.7253761408534551" transform="matrix(0.766157489767847,-0.6426528618722797,0.6426528618722797,0.766157489767847,252.6363739362218,50.115078886898345)" fill="#3505f3"></use><use xlink:href="#bbburst-shape-4" width="31.41188772759261" opacity="0.055174519847141834" transform="matrix(0.9623905521323686,0.2716696986532629,-0.2716696986532629,0.9623905521323686,717.5830870080755,-350.55089527196856)" fill="#d8f550"></use><use xlink:href="#bbburst-shape-12" width="14.816885860778296" opacity="0.736823876246192" transform="matrix(0.9907498264472359,0.13570107366845727,-0.13570107366845727,0.9907498264472359,328.55362923134476,5.696973861456115)" fill="none" stroke="#e433d0"></use><use xlink:href="#bbburst-shape-8" width="18.16466072522719" opacity="0.699632834441168" transform="matrix(0.996918547229823,0.07844367526562676,-0.07844367526562676,0.996918547229823,477.2016783741156,124.04333559396798)" fill="none" stroke="#d8f550"></use><use xlink:href="#bbburst-shape-8" width="21.352221434143864" opacity="0.35441908259734745" transform="matrix(0.7648199422161174,0.6442440965880362,-0.6442440965880362,0.7648199422161174,599.7749296071077,-199.02458838877584)" fill="none" stroke="#5cc7ef"></use><use xlink:href="#bbburst-shape-11" width="14.572770080561673" opacity="0.7695140298511334" transform="matrix(0.9591845226544947,0.28278092492257884,-0.28278092492257884,0.9591845226544947,559.9603481079696,102.76967272706486)" fill="none" stroke="#5cc7ef"></use><use xlink:href="#bbburst-shape-4" width="21.393753820799084" opacity="0.45815687613399003" transform="matrix(0.8008891909861536,0.5988125781590967,-0.5988125781590967,0.8008891909861536,870.766959798082,29.22188736533053)" fill="#72f555"></use><use xlink:href="#bbburst-shape-4" width="9.980575826281502" opacity="0.8796921922225421" transform="matrix(0.7760480809690309,-0.6306737476891554,0.6306737476891554,0.7760480809690309,122.06797460567901,142.29243090160725)" fill="#72f555"></use><use xlink:href="#bbburst-shape-6" width="12.683411471397319" opacity="0.8046674512748436" transform="matrix(0.9902517734242945,0.13928899895555202,-0.13928899895555202,0.9902517734242945,371.44983594177677,-37.53700418264509)" fill="#72f555"></use><use xlink:href="#bbburst-shape-7" width="6.999390491613811" opacity="0.9266649124987754" transform="matrix(0.7177013292468518,-0.6963510623222327,0.6963510623222327,0.7177013292468518,142.39841514282767,92.1731101210321)" fill="#d8f550"></use><use xlink:href="#bbburst-shape-8" width="21.476537943620546" opacity="0.5936216090631701" transform="matrix(0.9951076605147309,0.09879647759358234,-0.09879647759358234,0.9951076605147309,396.67275322532004,-179.12414825750747)" fill="none" stroke="#e433d0"></use><use xlink:href="#bbburst-shape-11" width="12.298473752877065" opacity="0.7728282439144005" transform="matrix(0.7183208423048212,0.6957119860333674,-0.6957119860333674,0.7183208423048212,751.960000665767,174.3797645821623)" fill="none" stroke="#72f555"></use><use xlink:href="#bbburst-shape-1" width="9.550958756997103" opacity="0.8738372015632531" transform="matrix(0.9707948123940391,0.23991130075263756,-0.23991130075263756,0.9707948123940391,443.08029048771016,40.474849797987076)" fill="#5cc7ef"></use><use xlink:href="#bbburst-shape-6" width="6.695750996215698" opacity="0.9684061058992127" transform="matrix(0.9796255370667586,-0.2008327839937114,0.2008327839937114,0.9796255370667586,317.4842643756364,-5.352641664110308)" fill="#72f555"></use><use xlink:href="#bbburst-shape-7" width="8.192285884726502" opacity="0.826052974069893" transform="matrix(0.9658814354546006,-0.25898465715976343,0.25898465715976343,0.9658814354546006,311.2740680605008,-61.258494677226)" fill="#5cc7ef"></use><use xlink:href="#bbburst-shape-11" width="26.91947236225531" opacity="0.381237679592872" transform="matrix(0.7943209061369434,-0.6074983934742422,0.6074983934742422,0.7943209061369434,423.65895528358703,112.32582316392023)" fill="none" stroke="#d8f550"></use><use xlink:href="#bbburst-shape-7" width="9.176977966745868" opacity="0.8577377865273824" transform="matrix(0.9965825944613083,0.08260225430802522,-0.08260225430802522,0.9965825944613083,368.29448129199164,-20.95757166969406)" fill="#e433d0"></use><use xlink:href="#bbburst-shape-11" width="14.198814917686622" opacity="0.7278701084363592" transform="matrix(0.7845834718591767,0.6200232057636235,-0.6200232057636235,0.7845834718591767,593.4567985315829,193.80711524866177)" fill="none" stroke="#3505f3"></use><use xlink:href="#bbburst-shape-11" width="11.755653163726137" opacity="0.7695576241390375" transform="matrix(0.9904669798130179,0.1377503607983613,-0.1377503607983613,0.9904669798130179,517.5506909974616,-75.21848604974599)" fill="none" stroke="#e433d0"></use><use xlink:href="#bbburst-shape-11" width="8.296231215876073" opacity="0.8625430253672429" transform="matrix(0.9780995828542782,0.2081374690445883,-0.2081374690445883,0.9780995828542782,417.58973227951657,13.068026319697196)" fill="none" stroke="#72f555"></use><use xlink:href="#bbburst-shape-4" width="12.447422018117239" opacity="0.764596906321892" transform="matrix(0.7175837080719316,-0.6964722693041963,0.6964722693041963,0.7175837080719316,218.1580468640188,148.59793179100706)" fill="#d8f550"></use><use xlink:href="#bbburst-shape-6" width="10.95770594482606" opacity="0.860976340935311" transform="matrix(0.8261332551037819,-0.5634747951875307,0.5634747951875307,0.8261332551037819,232.44473599493645,67.63809142440272)" fill="#72f555"></use><use xlink:href="#bbburst-shape-11" width="25.033914255168096" opacity="0.32948002174370183" transform="matrix(0.9401032446858304,0.34088984926391364,-0.34088984926391364,0.9401032446858304,224.27324483909845,-8.68209943141062)" fill="none" stroke="#e433d0"></use><use xlink:href="#bbburst-shape-12" width="16.796525149511552" opacity="0.7069143783642967" transform="matrix(0.9788672575012839,-0.20449668014888459,0.20449668014888459,0.9788672575012839,203.66343947053076,88.19572865695545)" fill="none" stroke="#d8f550"></use><use xlink:href="#bbburst-shape-1" width="12.6234533971385" opacity="0.7938426759344379" transform="matrix(0.9976224710040619,-0.06891592956457723,0.06891592956457723,0.9976224710040619,288.94357393412736,52.85546478427153)" fill="#d8f550"></use><use xlink:href="#bbburst-shape-11" width="8.209489561432793" opacity="0.8972875668777224" transform="matrix(0.9107760146944415,0.4129007762856719,-0.4129007762856719,0.9107760146944415,563.9409604461067,80.0526484462145)" fill="none" stroke="#d8f550"></use><use xlink:href="#bbburst-shape-6" width="21.93670747092763" opacity="0.3778575003756729" transform="matrix(0.7816421853435119,-0.6237270990516758,0.6237270990516758,0.7816421853435119,401.1895875464185,199.86087600379994)" fill="#72f555"></use><use xlink:href="#bbburst-shape-6" width="39.34235139746279" opacity="0.24722276991443692" transform="matrix(0.978350715742849,-0.20695380403716906,0.20695380403716906,0.978350715742849,467.4594837571491,306.03274901255577)" fill="#d8f550"></use><use xlink:href="#bbburst-shape-12" width="8.855950542575536" opacity="0.8278798641048644" transform="matrix(0.9998977162287439,0.014302345281189765,-0.014302345281189765,0.9998977162287439,456.0340406073555,-54.834633966183674)" fill="none" stroke="#e433d0"></use><use xlink:href="#bbburst-shape-1" width="13.833492534717665" opacity="0.7337921856796349" transform="matrix(0.9364848063295104,-0.3507081514792312,0.3507081514792312,0.9364848063295104,139.15995269303573,64.38563569041793)" fill="#e433d0"></use><use xlink:href="#bbburst-shape-7" width="26.44866237301243" opacity="0.2849920990791973" transform="matrix(0.9924816670668326,0.12239338436468195,-0.12239338436468195,0.9924816670668326,305.03825383904774,-292.64264773335077)" fill="#72f555"></use><use xlink:href="#bbburst-shape-4" width="54.19602877881445" opacity="-0.08009102760470932" transform="matrix(0.988079816026579,0.15394244756038436,-0.15394244756038436,0.988079816026579,91.08446184645948,-343.01071958139835)" fill="#5cc7ef"></use><use xlink:href="#bbburst-shape-4" width="11.864588348046533" opacity="0.7468397750838889" transform="matrix(0.7852751816746802,-0.6191469042527774,0.6191469042527774,0.7852751816746802,133.6753362307419,-23.485488629315626)" fill="#5cc7ef"></use><use xlink:href="#bbburst-shape-11" width="31.450569614998578" opacity="0.4178455827843184" transform="matrix(0.960409818975383,0.27859106162199826,-0.27859106162199826,0.960409818975383,720.4869341468817,-124.705773545726)" fill="none" stroke="#5cc7ef"></use><use xlink:href="#bbburst-shape-7" width="13.690401041781879" opacity="0.7358913637119269" transform="matrix(0.8825059535094159,-0.470301224770292,0.470301224770292,0.8825059535094159,109.26074359825833,-19.093262430193988)" fill="#5cc7ef"></use><use xlink:href="#bbburst-shape-4" width="28.969631809843612" opacity="0.5683342435048158" transform="matrix(0.9435277577027933,-0.331293480835858,0.331293480835858,0.9435277577027933,103.43159951897442,150.35509214330477)" fill="#5cc7ef"></use><use xlink:href="#bbburst-shape-11" width="8.21252629491266" opacity="0.887843803191847" transform="matrix(0.9304144974419377,0.3665090216486718,-0.3665090216486718,0.9304144974419377,508.85354015011046,-11.097558882471219)" fill="none" stroke="#d8f550"></use><use xlink:href="#bbburst-shape-8" width="18.230385332554796" opacity="0.5591894684147644" transform="matrix(0.9745352022358708,0.2242345638011465,-0.2242345638011465,0.9745352022358708,553.1156814733018,-176.57555400081407)" fill="none" stroke="#d8f550"></use><use xlink:href="#bbburst-shape-8" width="5.438373726515289" opacity="0.9624921359228434" transform="matrix(0.7285749387453274,0.6849661003525959,-0.6849661003525959,0.7285749387453274,674.2389135505971,123.4375689566258)" fill="none" stroke="#72f555"></use><use xlink:href="#bbburst-shape-7" width="9.773362648100454" opacity="0.8721019667379661" transform="matrix(0.8855422998979521,0.46455875311035255,-0.46455875311035255,0.8855422998979521,589.3493289083664,-13.517953894649395)" fill="#72f555"></use><use xlink:href="#bbburst-shape-12" width="22.17985556511877" opacity="0.16819238959576144" transform="matrix(0.9441514007078763,0.3295119611506617,-0.3295119611506617,0.9441514007078763,531.4694868822056,-355.5293191110019)" fill="none" stroke="#72f555"></use><use xlink:href="#bbburst-shape-11" width="28.18852987984595" opacity="0.14060012045800374" transform="matrix(0.731313315541922,0.6820416662573345,-0.6820416662573345,0.731313315541922,788.2774638976391,463.3893716152072)" fill="none" stroke="#e433d0"></use><use xlink:href="#bbburst-shape-4" width="9.539702669306473" opacity="0.8530727547739266" transform="matrix(0.9880002602950219,0.15445221156386524,-0.15445221156386524,0.9880002602950219,425.3494813792479,-53.941169224610974)" fill="#d8f550"></use><use xlink:href="#bbburst-shape-6" width="11.945461335352526" opacity="0.7914501088630161" transform="matrix(0.9043197719045741,-0.4268556549261811,0.4268556549261811,0.9043197719045741,313.8883227390612,14.333566518605267)" fill="#5cc7ef"></use><use xlink:href="#bbburst-shape-11" width="28.798089498850455" opacity="0.25544076423008444" transform="matrix(0.8788787386294423,0.47704524186403996,-0.47704524186403996,0.8788787386294423,844.1060299910675,-162.7762872322171)" fill="none" stroke="#d8f550"></use><use xlink:href="#bbburst-shape-11" width="7.44300690244038" opacity="0.9187905644305777" transform="matrix(0.9084448830737609,-0.41800465836770395,0.41800465836770395,0.9084448830737609,265.76904104527057,41.42523584815115)" fill="none" stroke="#5cc7ef"></use><use xlink:href="#bbburst-shape-4" width="18.92574648676775" opacity="0.6775353456003157" transform="matrix(0.8341594795158805,-0.5515233111426889,0.5515233111426889,0.8341594795158805,28.872398071014572,44.88362608511352)" fill="#d8f550"></use><use xlink:href="#bbburst-shape-11" width="35.1256784478255" opacity="-0.10430244471563732" transform="matrix(0.8060853596298686,0.5917992843780612,-0.5917992843780612,0.8060853596298686,963.0503457691023,-295.4024511270803)" fill="none" stroke="#5cc7ef"></use><use xlink:href="#bbburst-shape-12" width="23.321890510296164" opacity="0.4447975807908773" transform="matrix(0.8880666478578453,0.459714725631592,-0.459714725631592,0.8880666478578453,450.5374238285092,-178.084270607494)" fill="none" stroke="#72f555"></use><use xlink:href="#bbburst-shape-4" width="18.270367335561758" opacity="0.5725341490236413" transform="matrix(0.7267896262276772,0.6868601307455785,-0.6868601307455785,0.7267896262276772,585.3451245438332,-70.6302729522022)" fill="#72f555"></use><use xlink:href="#bbburst-shape-4" width="13.90584492377709" opacity="0.6741840048444677" transform="matrix(0.9603924793943296,0.2786508308310103,-0.2786508308310103,0.9603924793943296,413.39920857623633,128.57496751904165)" fill="#72f555"></use><use xlink:href="#bbburst-shape-4" width="30.48808791055326" opacity="0.40963828438564587" transform="matrix(0.9593593790485689,0.28218713973451076,-0.28218713973451076,0.9593593790485689,595.2568843406749,259.29653270065785)" fill="#d8f550"></use><use xlink:href="#bbburst-shape-4" width="34.17128467478674" opacity="0.3194893715717352" transform="matrix(0.7166228895085501,0.6974608478132779,-0.6974608478132779,0.7166228895085501,727.8089735763742,-198.61794915874572)" fill="#e433d0"></use><use xlink:href="#bbburst-shape-12" width="31.322954184386663" opacity="0.2905611862471129" transform="matrix(0.9469240328276208,0.32145742494687374,-0.32145742494687374,0.9469240328276208,830.6212958420364,-22.906631107280475)" fill="none" stroke="#72f555"></use><use xlink:href="#bbburst-shape-7" width="14.993811835675547" opacity="0.7393941866640756" transform="matrix(0.9387203604884525,0.34467968435118085,-0.34467968435118085,0.9387203604884525,481.99268122486774,-84.73545760831564)" fill="#72f555"></use><use xlink:href="#bbburst-shape-1" width="12.008456238880553" opacity="0.67845810496225" transform="matrix(0.9638309148494272,0.26651447911983356,-0.26651447911983356,0.9638309148494272,460.9377419934151,-126.20809309737092)" fill="#e433d0"></use><use xlink:href="#bbburst-shape-12" width="14.535084930231914" opacity="0.7701060750212411" transform="matrix(0.8687795288042418,-0.49519908151235453,0.49519908151235453,0.8687795288042418,130.82201407897452,136.7303892343188)" fill="none" stroke="#72f555"></use><use xlink:href="#bbburst-shape-6" width="26.352779193397943" opacity="0.24819323471601717" transform="matrix(0.9500471615835553,0.31210637732515173,-0.31210637732515173,0.9500471615835553,821.044433713328,-122.50578552371178)" fill="#72f555"></use><use xlink:href="#bbburst-shape-7" width="34.08151141908281" opacity="0.2600642370517582" transform="matrix(0.739495682909992,-0.6731612993610703,0.6731612993610703,0.739495682909992,-176.0139854066702,271.9657392801799)" fill="#e433d0"></use><use xlink:href="#bbburst-shape-11" width="16.04565666107173" opacity="0.6190670700734251" transform="matrix(0.9993247106575387,0.03674401542056283,-0.03674401542056283,0.9993247106575387,577.104684388316,18.28455294148216)" fill="none" stroke="#e433d0"></use><use xlink:href="#bbburst-shape-12" width="6.849060258680794" opacity="0.8502374678285503" transform="matrix(0.8790509122776063,0.4767279031312391,-0.4767279031312391,0.8790509122776063,640.6365385352294,88.42732109893274)" fill="none" stroke="#e433d0"></use><use xlink:href="#bbburst-shape-11" width="6.658506519568151" opacity="0.901460212797905" transform="matrix(0.9335697507716066,0.3583957595232404,-0.3583957595232404,0.9335697507716066,582.191271661491,10.81366936957329)" fill="none" stroke="#d8f550"></use><use xlink:href="#bbburst-shape-7" width="23.16859076818698" opacity="0.3693189546743695" transform="matrix(0.8893892159580757,-0.4571507656533886,0.4571507656533886,0.8893892159580757,476.0632897514281,-39.991713644113304)" fill="#5cc7ef"></use><use xlink:href="#bbburst-shape-12" width="5.703200068169736" opacity="0.9943210806822246" transform="matrix(0.8484922592006487,0.5292077910202939,-0.5292077910202939,0.8484922592006487,611.6188729887672,60.089652698132966)" fill="none" stroke="#5cc7ef"></use><use xlink:href="#bbburst-shape-8" width="24.037274271832768" opacity="0.6384309813762619" transform="matrix(0.9933357044088467,-0.11525700996720485,0.11525700996720485,0.9933357044088467,193.81565349976046,71.33328257856306)" fill="none" stroke="#72f555"></use><use xlink:href="#bbburst-shape-4" width="18.44989927382598" opacity="0.5204635351544393" transform="matrix(0.9832113264134057,-0.18247051162418407,0.18247051162418407,0.9832113264134057,533.6580912656786,14.219259210138489)" fill="#e433d0"></use><use xlink:href="#bbburst-shape-6" width="25.668274886343788" opacity="0.26653206522677986" transform="matrix(0.8389822073133274,-0.5441588516340213,0.5441588516340213,0.8389822073133274,492.5436992744776,148.30166620473204)" fill="#e433d0"></use><use xlink:href="#bbburst-shape-11" width="9.061760937441107" opacity="0.7796610204492291" transform="matrix(0.8143703431184983,0.5803455386655948,-0.5803455386655948,0.8143703431184983,670.9529143590997,-18.084927394928457)" fill="none" stroke="#5cc7ef"></use><use xlink:href="#bbburst-shape-7" width="19.57976902967811" opacity="0.6289767010861114" transform="matrix(0.9642957038106515,-0.2648278603401087,0.2648278603401087,0.9642957038106515,159.09405244500124,-93.26916648248289)" fill="#5cc7ef"></use><use xlink:href="#bbburst-shape-12" width="26.398649473977102" opacity="0.5217247162119003" transform="matrix(0.8843615020616695,0.4668026710198086,-0.4668026710198086,0.8843615020616695,429.69853900052226,-118.65674059619602)" fill="none" stroke="#e433d0"></use><use xlink:href="#bbburst-shape-6" width="7.553058145783703" opacity="0.9290823968853259" transform="matrix(0.8611470600948605,-0.5083559194992998,0.5083559194992998,0.8611470600948605,187.24213469134799,88.77316790881855)" fill="#e433d0"></use><use xlink:href="#bbburst-shape-11" width="36.060798035209444" opacity="-0.09245308494862647" transform="matrix(0.9210104064991959,-0.3895379713457805,0.3895379713457805,0.9210104064991959,-123.55219926234246,382.44217004462536)" fill="none" stroke="#5cc7ef"></use><use xlink:href="#bbburst-shape-11" width="34.174422560254726" opacity="0.29300308570981437" transform="matrix(0.9230614588168484,0.3846524967381748,-0.3846524967381748,0.9230614588168484,601.8165477199847,335.531457252521)" fill="none" stroke="#5cc7ef"></use><use xlink:href="#bbburst-shape-11" width="11.157341049157463" opacity="0.7984262491941361" transform="matrix(0.7737174772317069,-0.6335307928003209,0.6335307928003209,0.7737174772317069,135.12126901608696,184.36912187216404)" fill="none" stroke="#d8f550"></use><use xlink:href="#bbburst-shape-4" width="25.522958067818372" opacity="0.13697507681402654" transform="matrix(0.7187704737317693,-0.6952474423479801,0.6952474423479801,0.7187704737317693,-127.68572117782546,-183.60721081311368)" fill="#e433d0"></use><use xlink:href="#bbburst-shape-12" width="11.283070783904773" opacity="0.7217757909039635" transform="matrix(0.8661881568406267,-0.4997179974235848,0.4997179974235848,0.8661881568406267,114.50234320474598,-39.38470325532222)" fill="none" stroke="#5cc7ef"></use><use xlink:href="#bbburst-shape-11" width="18.266428114149893" opacity="0.6158839105248984" transform="matrix(0.9987421509780193,0.05014095990105475,-0.05014095990105475,0.9987421509780193,507.22655794310714,-143.74490055370217)" fill="none" stroke="#5cc7ef"></use><use xlink:href="#bbburst-shape-4" width="16.170901606497956" opacity="0.6757475820695188" transform="matrix(0.9350314217927232,-0.3545648604420331,0.3545648604420331,0.9350314217927232,360.8131548131006,-66.77741955558287)" fill="#d8f550"></use><use xlink:href="#bbburst-shape-7" width="16.401098195962135" opacity="0.6890111351240059" transform="matrix(0.9975043064245928,0.07060565603683712,-0.07060565603683712,0.9975043064245928,555.3410617681365,36.02514243732401)" fill="#5cc7ef"></use><use xlink:href="#bbburst-shape-7" width="32.340612504697994" opacity="0.31478298503528435" transform="matrix(0.9134232868690292,0.4070109322922166,-0.4070109322922166,0.9134232868690292,357.86021400854395,-214.80559905664558)" fill="#5cc7ef"></use><use xlink:href="#bbburst-shape-6" width="22.832874530258923" opacity="0.5377643685929501" transform="matrix(0.997854590651799,0.06546919821664596,-0.06546919821664596,0.997854590651799,596.8597456811555,-100.48323486484463)" fill="#e433d0"></use><use xlink:href="#bbburst-shape-7" width="28.31567508843909" opacity="0.2874797649573705" transform="matrix(0.8470766546157164,0.5314707341002385,-0.5314707341002385,0.8470766546157164,313.14345024180335,-88.62846306298434)" fill="#e433d0"></use><use xlink:href="#bbburst-shape-12" width="24.875360599397432" opacity="0.38414320465714413" transform="matrix(0.9427154557574081,-0.3335979158749381,0.3335979158749381,0.9427154557574081,446.6944527842341,-172.95082917397394)" fill="none" stroke="#d8f550"></use><use xlink:href="#bbburst-shape-11" width="19.799765394942998" opacity="0.5704460815692778" transform="matrix(0.9533481961884511,0.30187284876952164,-0.30187284876952164,0.9533481961884511,698.5793386539656,-32.77950773518842)" fill="none" stroke="#72f555"></use><use xlink:href="#bbburst-shape-1" width="10.565405824044795" opacity="0.7732824211463276" transform="matrix(0.8059874919486698,-0.5919325661106111,0.5919325661106111,0.8059874919486698,243.2245957926521,23.20119243416491)" fill="#e433d0"></use><use xlink:href="#bbburst-shape-8" width="8.378666694466988" opacity="0.8442599479393608" transform="matrix(0.7421681030142769,0.6702137769907371,-0.6702137769907371,0.7421681030142769,728.7519896046275,71.26826718364566)" fill="none" stroke="#72f555"></use><use xlink:href="#bbburst-shape-7" width="28.153932183458373" opacity="0.45094456055736654" transform="matrix(0.9962287978486134,-0.08676509861174972,0.08676509861174972,0.9962287978486134,552.8523771069026,145.4519880892342)" fill="#d8f550"></use><use xlink:href="#bbburst-shape-1" width="38.11224533061855" opacity="0.3571482942340982" transform="matrix(0.9972252244128043,0.07444361486945765,-0.07444361486945765,0.9972252244128043,128.56827145776603,63.353855603136765)" fill="#5cc7ef"></use><use xlink:href="#bbburst-shape-7" width="21.821032911170644" opacity="0.5910651000040661" transform="matrix(0.9999423768268754,-0.010735130451893296,0.010735130451893296,0.9999423768268754,551.5022062054032,77.89352683952609)" fill="#72f555"></use><use xlink:href="#bbburst-shape-1" width="25.20770991128554" opacity="0.162607803179582" transform="matrix(0.9424202470110191,-0.3344309764715132,0.3344309764715132,0.9424202470110191,154.4398385815701,-336.059803063077)" fill="#72f555"></use><use xlink:href="#bbburst-shape-11" width="24.12317061002618" opacity="0.45699646024875673" transform="matrix(0.8537280624250536,-0.520719113753244,0.520719113753244,0.8537280624250536,195.50851488767765,-179.41133636974666)" fill="none" stroke="#3505f3"></use><use xlink:href="#bbburst-shape-12" width="12.13136209342006" opacity="0.801527805421469" transform="matrix(0.8875722028737425,0.4606686278507058,-0.4606686278507058,0.8875722028737425,668.2062634090211,42.26497383351642)" fill="none" stroke="#d8f550"></use><use xlink:href="#bbburst-shape-11" width="12.225771263752307" opacity="0.7037693774954787" transform="matrix(0.9902955975045495,0.13897708287018862,-0.13897708287018862,0.9902955975045495,465.9965495353397,135.16266212526335)" fill="none" stroke="#5cc7ef"></use><use xlink:href="#bbburst-shape-11" width="38.92671417372018" opacity="0.17146141980023955" transform="matrix(0.7738338366654338,0.6333886589067211,-0.6333886589067211,0.7738338366654338,352.8467866609973,-161.72774861501566)" fill="none" stroke="#3505f3"></use><use xlink:href="#bbburst-shape-6" width="7.152965834455049" opacity="0.903054567032036" transform="matrix(0.9674393233657611,-0.25310305333124344,0.25310305333124344,0.9674393233657611,331.9961912636101,37.51935973788454)" fill="#3505f3"></use><use xlink:href="#bbburst-shape-11" width="43.54809723877278" opacity="-0.09280304878985768" transform="matrix(0.9824137840666339,-0.18671678252336416,0.18671678252336416,0.9824137840666339,653.6251153924442,356.1840974599244)" fill="none" stroke="#e433d0"></use><use xlink:href="#bbburst-shape-6" width="31.84405720288211" opacity="0.04010396455603882" transform="matrix(0.7116526852568642,-0.7025314623322535,0.7025314623322535,0.7116526852568642,-134.9072375762017,483.9410678881593)" fill="#72f555"></use><use xlink:href="#bbburst-shape-8" width="15.56496582104014" opacity="0.6623498386340463" transform="matrix(0.9763947587226688,0.2159936923590627,-0.2159936923590627,0.9763947587226688,628.6746263804979,-17.213905625831273)" fill="none" stroke="#d8f550"></use><use xlink:href="#bbburst-shape-6" width="14.36778129546668" opacity="0.731625580214098" transform="matrix(0.8547143892481452,-0.5190985578983727,0.5190985578983727,0.8547143892481452,306.9523243647878,58.86837360794499)" fill="#d8f550"></use><use xlink:href="#bbburst-shape-11" width="10.187234318870477" opacity="0.8342729590955236" transform="matrix(0.9700689449624451,-0.24282965638374682,0.24282965638374682,0.9700689449624451,370.19794212010163,31.35908503667605)" fill="none" stroke="#3505f3"></use><use xlink:href="#bbburst-shape-11" width="34.84075214212356" opacity="0.14228205545331374" transform="matrix(0.9641507438938505,0.26535512629104185,-0.26535512629104185,0.9641507438938505,355.80616553650475,371.3760005624939)" fill="none" stroke="#e433d0"></use><use xlink:href="#bbburst-shape-6" width="31.83694866578503" opacity="0.04885628933564412" transform="matrix(0.9663586727336482,0.25719820301172763,-0.25719820301172763,0.9663586727336482,846.37124100733,242.6120820554948)" fill="#d8f550"></use><use xlink:href="#bbburst-shape-12" width="28.4053250474901" opacity="-0.017352487243285752" transform="matrix(0.9982674080944297,-0.05884030877238197,0.05884030877238197,0.9982674080944297,724.047081308521,-279.085160071645)" fill="none" stroke="#5cc7ef"></use><use xlink:href="#bbburst-shape-7" width="31.444211677361555" opacity="0.16373743450296374" transform="matrix(0.9474896667141836,-0.3197863841220343,0.3197863841220343,0.9474896667141836,-104.3889449710914,130.73096757797782)" fill="#e433d0"></use><use xlink:href="#bbburst-shape-4" width="32.91809631744534" opacity="0.19081725204965694" transform="matrix(0.944668700751036,0.3280259834545879,-0.3280259834545879,0.944668700751036,151.55440535954182,21.770217033301662)" fill="#5cc7ef"></use><use xlink:href="#bbburst-shape-4" width="11.40275879291465" opacity="0.828982355971387" transform="matrix(0.9190570822163613,0.39412444687934367,-0.39412444687934367,0.9190570822163613,596.4830654779316,93.22462597557251)" fill="#3505f3"></use><use xlink:href="#bbburst-shape-6" width="8.925652547820025" opacity="0.8465330588228691" transform="matrix(0.9585233204542232,-0.28501411218641537,0.28501411218641537,0.9585233204542232,315.00530207840916,-42.644836082722634)" fill="#e433d0"></use><use xlink:href="#bbburst-shape-12" width="8.03557731866592" opacity="0.8716027093337291" transform="matrix(0.768432361571569,-0.6399310163521857,0.6399310163521857,0.768432361571569,161.18020207009943,149.30123310185053)" fill="none" stroke="#e433d0"></use><use xlink:href="#bbburst-shape-11" width="16.95766415220067" opacity="0.6943625875622476" transform="matrix(0.8560866974555089,0.5168322420667271,-0.5168322420667271,0.8560866974555089,717.5973656403685,123.63595337334988)" fill="none" stroke="#3505f3"></use><use xlink:href="#bbburst-shape-7" width="15.759191652130088" opacity="0.5679072861161945" transform="matrix(0.931921159732741,-0.36266093261114163,0.36266093261114163,0.931921159732741,261.2233745771864,-163.85470291447058)" fill="#3505f3"></use><use xlink:href="#bbburst-shape-6" width="34.68069494697612" opacity="0.13317521294530654" transform="matrix(0.9719054681707312,0.23537153808358346,-0.23537153808358346,0.9719054681707312,191.94758098986543,273.11194084484345)" fill="#3505f3"></use><use xlink:href="#bbburst-shape-12" width="28.228366233197278" opacity="0.45193414833581835" transform="matrix(0.933791275054997,-0.3578181865573114,0.3578181865573114,0.933791275054997,323.2655174178766,-201.9480599162335)" fill="none" stroke="#e433d0"></use><use xlink:href="#bbburst-shape-12" width="32.81985750448608" opacity="0.05798653474284099" transform="matrix(0.8105162323805245,0.5857161744801654,-0.5857161744801654,0.8105162323805245,258.31109854136923,-153.27011577384926)" fill="none" stroke="#d8f550"></use><use xlink:href="#bbburst-shape-6" width="30.811963877992493" opacity="0.11393916682802663" transform="matrix(0.9054020570166977,0.4245551968236078,-0.4245551968236078,0.9054020570166977,835.2158030865396,-253.22060885556658)" fill="#d8f550"></use><use xlink:href="#bbburst-shape-7" width="12.404127793204298" opacity="0.7930993605144587" transform="matrix(0.7954644864255482,0.6060002069601451,-0.6060002069601451,0.7954644864255482,580.7001093995382,4.202137119709505)" fill="#3505f3"></use><use xlink:href="#bbburst-shape-8" width="12.875423984122158" opacity="0.7275724859688264" transform="matrix(0.924495312932343,0.381193410706598,-0.381193410706598,0.924495312932343,529.8936054061029,149.20676147760582)" fill="none" stroke="#e433d0"></use><use xlink:href="#bbburst-shape-6" width="7.417759799981204" opacity="0.9344638577934912" transform="matrix(0.7689723505786279,-0.6392820379500583,0.6392820379500583,0.7689723505786279,126.00547020549541,69.64933442194075)" fill="#e433d0"></use><use xlink:href="#bbburst-shape-6" width="20.964533894229653" opacity="0.4868832761091386" transform="matrix(0.8384475285480258,0.544982331705999,-0.544982331705999,0.8384475285480258,747.7490401513085,243.62788806577692)" fill="#e433d0"></use><use xlink:href="#bbburst-shape-6" width="13.007734888179025" opacity="0.8174661385719877" transform="matrix(0.9999445038599659,0.010535141206773088,-0.010535141206773088,0.9999445038599659,319.0651011756174,23.658525566759636)" fill="#72f555"></use><use xlink:href="#bbburst-shape-6" width="15.797091689976591" opacity="0.6337197886882708" transform="matrix(0.9638964338173897,0.2662774208867861,-0.2662774208867861,0.9638964338173897,444.16490022110804,167.811788045073)" fill="#5cc7ef"></use><use xlink:href="#bbburst-shape-1" width="29.67046719963242" opacity="0.31375231624507705" transform="matrix(0.8523638541682567,-0.5229491945757588,0.5229491945757588,0.8523638541682567,308.36198069660253,-213.1926441075545)" fill="#3505f3"></use><use xlink:href="#bbburst-shape-7" width="10.645245207374545" opacity="0.8020476643369951" transform="matrix(0.7258116996680412,-0.6878934340615479,0.6878934340615479,0.7258116996680412,91.91501202615564,29.14641289341523)" fill="#72f555"></use><use xlink:href="#bbburst-shape-4" width="7.820194530777485" opacity="0.8781139500849273" transform="matrix(0.9870227235336528,0.1605806440023529,-0.1605806440023529,0.9870227235336528,501.7852512118692,-31.392516131228547)" fill="#72f555"></use><use xlink:href="#bbburst-shape-12" width="8.631317601463344" opacity="0.8359201064843675" transform="matrix(0.9100359488317586,0.4145293377239792,-0.4145293377239792,0.9100359488317586,506.7366567107414,-14.906965776794095)" fill="none" stroke="#e433d0"></use><use xlink:href="#bbburst-shape-12" width="19.13484326573942" opacity="0.6435279744367393" transform="matrix(0.9981908685848563,0.060124785852509466,-0.060124785852509466,0.9981908685848563,271.17917212694175,-71.93302977524598)" fill="none" stroke="#5cc7ef"></use><use xlink:href="#bbburst-shape-12" width="7.0193193903599935" opacity="0.9017320469605826" transform="matrix(0.7712151621082031,-0.6365745625882471,0.6365745625882471,0.7712151621082031,98.64230665679713,89.45924713966605)" fill="none" stroke="#5cc7ef"></use><use xlink:href="#bbburst-shape-6" width="32.422978051407306" opacity="0.3681231124576907" transform="matrix(0.9782779293745366,0.2072975950141951,-0.2072975950141951,0.9782779293745366,355.7939848829569,266.9997702167608)" fill="#e433d0"></use><use xlink:href="#bbburst-shape-12" width="10.675547378338221" opacity="0.8542995296222575" transform="matrix(0.8855593747130049,-0.46452620362893604,0.46452620362893604,0.8855593747130049,205.2236627062226,113.66727833730192)" fill="none" stroke="#72f555"></use><use xlink:href="#bbburst-shape-1" width="26.121087848508928" opacity="0.4256557408049134" transform="matrix(0.750913665926453,-0.6604003833470232,0.6604003833470232,0.750913665926453,-121.85582832872294,35.21450868466235)" fill="#5cc7ef"></use></svg>