<svg xmlns="http://www.w3.org/2000/svg" version="1.1" xmlns:xlink="http://www.w3.org/1999/xlink" xmlns:svgjs="http://svgjs.dev/svgjs" viewBox="0 0 1422 800" width="1422" height="800"><g transform="scale(0.7) rotate(210) translate(0 0) skewX(-6) skewY(-17)" transform-origin="711 400"><rect width="2844" height="1600" x="-711" y="-400" fill="url(#rrreplicate-pattern1)"></rect><rect width="2844" height="1600" x="-711" y="-400" fill="url(#rrreplicate-pattern2)"></rect><rect width="2844" height="1600" x="-711" y="-400" fill="url(#rrreplicate-pattern3)"></rect></g><defs><pattern id="rrreplicate-pattern1" width="404" height="404" patternUnits="userSpaceOnUse" patternTransform="rotate(130)" stroke-width="4" fill="none" stroke="#de5433" stroke-opacity="0.48">
      <line x1="50.5" y1="0" x2="50.5" y2="404"></line><line x1="151.5" y1="0" x2="151.5" y2="404"></line><line x1="252.5" y1="0" x2="252.5" y2="404"></line><line x1="353.5" y1="0" x2="353.5" y2="404"></line>
      </pattern><pattern id="rrreplicate-pattern2" width="404" height="404" patternUnits="userSpaceOnUse" patternTransform="rotate(45)" stroke-opacity="0.67" stroke-width="2.6" fill="none" stroke="#ecc47e">
      <line x1="33.666666666666664" y1="0" x2="33.666666666666664" y2="404"></line><line x1="101" y1="0" x2="101" y2="404"></line><line x1="168.33333333333331" y1="0" x2="168.33333333333331" y2="404"></line><line x1="235.66666666666666" y1="0" x2="235.66666666666666" y2="404"></line><line x1="303" y1="0" x2="303" y2="404"></line><line x1="370.3333333333333" y1="0" x2="370.3333333333333" y2="404"></line>
      </pattern><pattern id="rrreplicate-pattern3" width="404" height="404" patternUnits="userSpaceOnUse" patternTransform="rotate(67)" stroke-opacity="1" stroke-width="2.8" fill="none" stroke="#d398c4">
      <line x1="28.857142857142858" y1="0" x2="28.857142857142858" y2="404"></line><line x1="86.57142857142857" y1="0" x2="86.57142857142857" y2="404"></line><line x1="144.28571428571428" y1="0" x2="144.28571428571428" y2="404"></line><line x1="202" y1="0" x2="202" y2="404"></line><line x1="259.7142857142857" y1="0" x2="259.7142857142857" y2="404"></line><line x1="317.4285714285714" y1="0" x2="317.4285714285714" y2="404"></line><line x1="375.1428571428571" y1="0" x2="375.1428571428571" y2="404"></line>
      </pattern></defs></svg>