<svg xmlns="http://www.w3.org/2000/svg" version="1.1" xmlns:xlink="http://www.w3.org/1999/xlink" xmlns:svgjs="http://svgjs.dev/svgjs" viewBox="0 0 800 800" opacity="1"><defs><linearGradient x1="50%" y1="0%" x2="50%" y2="100%" id="vvvortex-grad"><stop stop-color="#FAFFA7" stop-opacity="1" offset="0%"></stop><stop stop-color="#73D8DD" stop-opacity="1" offset="100%"></stop></linearGradient></defs><g stroke="url(#vvvortex-grad)" fill="none" stroke-linecap="round"><circle r="604.5" cx="400" cy="400" stroke-width="10" stroke-dasharray="19 16" stroke-dashoffset="25" transform="rotate(192, 400, 400)"></circle><circle r="585" cx="400" cy="400" stroke-width="10" stroke-dasharray="16 33" stroke-dashoffset="25" transform="rotate(132, 400, 400)"></circle><circle r="565.5" cx="400" cy="400" stroke-width="10" stroke-dasharray="49 50" stroke-dashoffset="25" transform="rotate(153, 400, 400)"></circle><circle r="546" cx="400" cy="400" stroke-width="9" stroke-dasharray="44 36" stroke-dashoffset="25" transform="rotate(100, 400, 400)"></circle><circle r="526.5" cx="400" cy="400" stroke-width="9" stroke-dasharray="48 18" stroke-dashoffset="25" transform="rotate(24, 400, 400)"></circle><circle r="507" cx="400" cy="400" stroke-width="9" stroke-dasharray="16 43" stroke-dashoffset="25" transform="rotate(193, 400, 400)"></circle><circle r="487.5" cx="400" cy="400" stroke-width="9" stroke-dasharray="50 42" stroke-dashoffset="25" transform="rotate(151, 400, 400)"></circle><circle r="468" cx="400" cy="400" stroke-width="9" stroke-dasharray="35 13" stroke-dashoffset="25" transform="rotate(347, 400, 400)"></circle><circle r="448.5" cx="400" cy="400" stroke-width="8" stroke-dasharray="38 30" stroke-dashoffset="25" transform="rotate(281, 400, 400)"></circle><circle r="429" cx="400" cy="400" stroke-width="8" stroke-dasharray="13 12" stroke-dashoffset="25" transform="rotate(296, 400, 400)"></circle><circle r="409.5" cx="400" cy="400" stroke-width="8" stroke-dasharray="13 23" stroke-dashoffset="25" transform="rotate(319, 400, 400)"></circle><circle r="390" cx="400" cy="400" stroke-width="8" stroke-dasharray="18 44" stroke-dashoffset="25" transform="rotate(245, 400, 400)"></circle><circle r="370.5" cx="400" cy="400" stroke-width="8" stroke-dasharray="30 31" stroke-dashoffset="25" transform="rotate(334, 400, 400)"></circle><circle r="351" cx="400" cy="400" stroke-width="7" stroke-dasharray="37 28" stroke-dashoffset="25" transform="rotate(108, 400, 400)"></circle><circle r="331.5" cx="400" cy="400" stroke-width="7" stroke-dasharray="42 44" stroke-dashoffset="25" transform="rotate(38, 400, 400)"></circle><circle r="312" cx="400" cy="400" stroke-width="7" stroke-dasharray="47 43" stroke-dashoffset="25" transform="rotate(150, 400, 400)"></circle><circle r="292.5" cx="400" cy="400" stroke-width="7" stroke-dasharray="33 49" stroke-dashoffset="25" transform="rotate(298, 400, 400)"></circle><circle r="273" cx="400" cy="400" stroke-width="7" stroke-dasharray="16 25" stroke-dashoffset="25" transform="rotate(327, 400, 400)"></circle><circle r="253.5" cx="400" cy="400" stroke-width="6" stroke-dasharray="28 38" stroke-dashoffset="25" transform="rotate(184, 400, 400)"></circle><circle r="234" cx="400" cy="400" stroke-width="6" stroke-dasharray="32 25" stroke-dashoffset="25" transform="rotate(81, 400, 400)"></circle><circle r="214.5" cx="400" cy="400" stroke-width="6" stroke-dasharray="33 10" stroke-dashoffset="25" transform="rotate(261, 400, 400)"></circle><circle r="195" cx="400" cy="400" stroke-width="6" stroke-dasharray="22 16" stroke-dashoffset="25" transform="rotate(330, 400, 400)"></circle><circle r="175.5" cx="400" cy="400" stroke-width="6" stroke-dasharray="49 55" stroke-dashoffset="25" transform="rotate(308, 400, 400)"></circle><circle r="156" cx="400" cy="400" stroke-width="5" stroke-dasharray="53 36" stroke-dashoffset="25" transform="rotate(122, 400, 400)"></circle><circle r="136.5" cx="400" cy="400" stroke-width="5" stroke-dasharray="47 11" stroke-dashoffset="25" transform="rotate(301, 400, 400)"></circle><circle r="117" cx="400" cy="400" stroke-width="5" stroke-dasharray="45 22" stroke-dashoffset="25" transform="rotate(2, 400, 400)"></circle><circle r="97.5" cx="400" cy="400" stroke-width="5" stroke-dasharray="15 15" stroke-dashoffset="25" transform="rotate(295, 400, 400)"></circle><circle r="78" cx="400" cy="400" stroke-width="5" stroke-dasharray="29 22" stroke-dashoffset="25" transform="rotate(316, 400, 400)"></circle><circle r="58.5" cx="400" cy="400" stroke-width="4" stroke-dasharray="48 28" stroke-dashoffset="25" transform="rotate(355, 400, 400)"></circle><circle r="39" cx="400" cy="400" stroke-width="4" stroke-dasharray="15 52" stroke-dashoffset="25" transform="rotate(316, 400, 400)"></circle><circle r="19.5" cx="400" cy="400" stroke-width="4" stroke-dasharray="36 19" stroke-dashoffset="25" transform="rotate(104, 400, 400)"></circle></g></svg>